<?xml version="1.0" encoding="UTF-8" standalone="no"?>
<!-- Created with Inkscape (http://www.inkscape.org/) -->

<svg
   xmlns:dc="http://purl.org/dc/elements/1.1/"
   xmlns:cc="http://creativecommons.org/ns#"
   xmlns:rdf="http://www.w3.org/1999/02/22-rdf-syntax-ns#"
   xmlns:svg="http://www.w3.org/2000/svg"
   xmlns="http://www.w3.org/2000/svg"
   xmlns:sodipodi="http://sodipodi.sourceforge.net/DTD/sodipodi-0.dtd"
   xmlns:inkscape="http://www.inkscape.org/namespaces/inkscape"
   width="200mm"
   height="200mm"
   viewBox="0 0 200 200"
   version="1.1"
   id="svg8"
   inkscape:version="0.92.4 (5da689c313, 2019-01-14)"
   sodipodi:docname="success.svg">
  <defs
     id="defs2" />
  <sodipodi:namedview
     id="base"
     pagecolor="#ffffff"
     bordercolor="#666666"
     borderopacity="1.0"
     inkscape:pageopacity="0.0"
     inkscape:pageshadow="2"
     inkscape:zoom="0.7"
     inkscape:cx="465.2651"
     inkscape:cy="418.39134"
     inkscape:document-units="mm"
     inkscape:current-layer="layer1"
     showgrid="false"
     inkscape:window-width="1280"
     inkscape:window-height="961"
     inkscape:window-x="339"
     inkscape:window-y="-8"
     inkscape:window-maximized="1" />
  <metadata
     id="metadata5">
    <rdf:RDF>
      <cc:Work
         rdf:about="">
        <dc:format>image/svg+xml</dc:format>
        <dc:type
           rdf:resource="http://purl.org/dc/dcmitype/StillImage" />
        <dc:title></dc:title>
      </cc:Work>
    </rdf:RDF>
  </metadata>
  <g
     inkscape:label="Layer 1"
     inkscape:groupmode="layer"
     id="layer1"
     transform="translate(0,-97)">
    <circle
       style="fill:#9df39d;fill-opacity:1;stroke:none;stroke-width:0.28044093;stroke-linecap:round;stroke-linejoin:round;stroke-miterlimit:4;stroke-dasharray:none;stroke-opacity:1"
       id="path815"
       cx="100"
       cy="197"
       r="100" />
    <path
       style="fill:#ffffff;fill-opacity:1;stroke:none;stroke-width:0.13249999;stroke-linecap:butt;stroke-linejoin:miter;stroke-miterlimit:4;stroke-dasharray:none;stroke-opacity:1"
       d="m 60.425362,197.10322 c 1.313013,-0.43767 2.209708,0.44194 2.209708,0.44194 l 31.819796,31.81981 c 0,0 0.879794,0.89619 0.44195,2.20971 -0.43784,1.3135 -1.856155,2.74004 -1.856155,2.74004 l -1.06066,1.06066 c 0,0 -1.074208,1.06515 -2.386485,1.5026 -1.312298,0.43744 -2.209708,-0.44194 -2.209708,-0.44194 L 55.564003,204.61623 c 0,0 -0.879498,-0.89703 -0.441942,-2.20971 0.437555,-1.31267 1.502602,-2.38648 1.502602,-2.38648 l 1.06066,-1.06066 c 0,0 1.426998,-1.41852 2.740039,-1.85616 z"
       id="path4537"
       inkscape:connector-curvature="0"
       sodipodi:nodetypes="zcczcczcczccz" />
    <path
       style="fill:#ffffff;fill-opacity:1;stroke:none;stroke-width:0.18738329;stroke-linecap:butt;stroke-linejoin:miter;stroke-miterlimit:4;stroke-dasharray:none;stroke-opacity:1"
       d="m 84.5,231.6967 c 10e-7,-1.75069 1.767767,-3.53554 1.767767,-3.53554 l 63.639623,-63.63961 c 0,0 1.78418,-1.76778 3.53553,-1.76777 1.75134,0 3.18198,1.41422 3.18198,1.41422 l 1.06066,1.06066 c 0,0 1.06064,1.07873 1.06066,2.82842 1e-5,1.74973 -1.76776,3.53554 -1.76776,3.53554 l -63.639627,63.63961 c 0,0 -1.785297,1.76777 -3.535532,1.76777 -1.750235,0 -2.828427,-1.06066 -2.828427,-1.06066 l -1.06066,-1.06066 c 0,0 -1.414214,-1.4313 -1.414214,-3.18198 z"
       id="path4537-3"
       inkscape:connector-curvature="0"
       sodipodi:nodetypes="zcczcczcczccz" />
  </g>
</svg>
